<svg width="50" height="50" xmlns="http://www.w3.org/2000/svg"><defs><path d="M28.045 37.586a12.945 12.945 0 01-15.542-15.542c1.051-4.747 4.883-8.578 9.63-9.63a12.944 12.944 0 0115.541 15.54c-1.05 4.749-4.882 8.578-9.629 9.632M50 26.907v-3.814a2.248 2.248 0 00-2.248-2.248h-.617c-1.437 0-2.694-.927-3.158-2.288a20.19 20.19 0 00-.997-2.391c-.646-1.298-.423-2.852.603-3.875l.442-.442a2.246 2.246 0 000-3.178l-2.696-2.698a2.246 2.246 0 00-3.178 0l-.474.475c-1.019 1.02-2.566 1.246-3.863.611-.76-.373-1.55-.7-2.36-.975-1.367-.464-2.301-1.721-2.301-3.165v-.674A2.246 2.246 0 0026.907 0h-3.816a2.246 2.246 0 00-2.246 2.245v.742c0 1.436-.925 2.687-2.282 3.157-.791.276-1.563.599-2.304.965-1.3.643-2.854.422-3.881-.603l-.531-.533a2.243 2.243 0 00-3.176 0l-2.7 2.698a2.25 2.25 0 000 3.178l.566.563c1.02 1.021 1.246 2.568.61 3.865a19.78 19.78 0 00-.942 2.275c-.468 1.361-1.72 2.293-3.162 2.293h-.798A2.245 2.245 0 000 23.093v3.814a2.243 2.243 0 002.245 2.246h.798c1.441 0 2.694.934 3.162 2.295.269.78.583 1.54.943 2.273.635 1.299.41 2.846-.611 3.865l-.566.565a2.25 2.25 0 000 3.178l2.7 2.698a2.247 2.247 0 003.176 0l.53-.533c1.028-1.025 2.582-1.249 3.882-.605.741.368 1.513.691 2.304.967 1.357.468 2.282 1.72 2.282 3.155v.741A2.246 2.246 0 0023.091 50h3.816a2.246 2.246 0 002.246-2.248v-.674c0-1.443.934-2.7 2.301-3.164.81-.275 1.6-.6 2.36-.973 1.297-.635 2.844-.41 3.863.611l.474.475a2.25 2.25 0 003.178 0l2.696-2.698c.877-.878.877-2.3 0-3.178l-.442-.442c-1.026-1.025-1.249-2.577-.603-3.875.38-.77.715-1.57.997-2.39.464-1.362 1.72-2.291 3.158-2.291h.617A2.246 2.246 0 0050 26.907" id="path-1"/></defs></svg>