<svg width="50" height="50" xmlns="http://www.w3.org/2000/svg"><defs><path d="M25 40.64c-2.536 0-4.645-1.825-5.046-4.225h10.092c-.4 2.4-2.51 4.226-5.046 4.226zM38.884 28.59c.239.253 2.45 2.653 2.34 4.699 0 .793-.65 1.437-1.452 1.437H10.228a1.444 1.444 0 01-1.451-1.437v-.051c-.111-1.995 2.1-4.395 2.348-4.666 3.33-3.701 3.33-9.846 3.33-13.903v-.963c.008-.296.017-.575.034-.862.324-5.392 3.877-8.249 7.377-9.246a2.6 2.6 0 01-.025-.364 3.16 3.16 0 116.318 0c0 .119-.007.245-.025.364 3.5.997 7.053 3.854 7.377 9.246.017.287.026.566.034.862v.963c0 4.057 0 10.202 3.339 13.92zM2.5 44.999h45a2.5 2.5 0 010 5h-45a2.5 2.5 0 010-5z" id="path-1"/></defs></svg>