<svg xmlns="http://www.w3.org/2000/svg" viewBox="0 0 500 500"><path d="M47.7 394.6c1.8-.4 44.4-9.9 67-49.7 1.3-2.3 2.4-4.8 3.6-7.2l-.2 78.9c0 9.8 7.9 17.8 17.8 17.8 9.8 0 17.8-7.9 17.8-17.7l.5-166.5c0-.7-.1-1.5-.2-2.2v-8.4c13.6 13.9 31.5 23.6 51.9 27.1 1.2.2 5.6.6 6.7.6h24.9v130.6c0 5.7 4.6 10.3 10.3 10.3H264c-.1 1.1-.3 2.3-.3 3.5 0 12.4 10.1 22.5 22.5 22.5s22.4-10.1 22.4-22.5c0-1.2-.1-2.3-.3-3.5h101.9c-.2 1.1-.3 2.3-.3 3.5 0 12.4 10 22.5 22.4 22.5s22.5-10.1 22.5-22.5c0-1.2-.2-2.3-.4-3.5h9l.1-.1c5.2 0 9.3-3.9 9.9-8.9l.3-.2V257c0-5.7-4.6-10.3-10.3-10.3H220.3c-1.9-3.6-5.4-6.3-9.7-7.1-32.8-5.5-56.6-33.7-56.7-66.9 0-6.9-5.2-12.7-12.1-13.5-25.3-3.1-50.3 3.9-70.4 19.6s-32.9 38.3-35.9 63.7c-1.1 9.5-.9 19.1.8 28.5 1.4 7.4 8.5 12.4 15.9 11 6.6-1.2 11.2-6.9 11.2-13.5 0-.8-.1-1.6-.2-2.4-.7-4-1.1-8-1.1-12 0-2.8.2-5.5.5-8.3 2.2-18 11.3-34.2 25.6-45.4 3.2-2.5 6.6-4.6 10.1-6.4v80.4c-1.3 16-5 36.3-14.4 52.9-14.5 25.6-43.3 32.4-43.6 32.5-9.5 2.2-15.6 11.7-13.5 21.2 2 9.6 11.4 15.7 20.9 13.6zM258 267.5h195.1v120.3H258V267.5zm242 217.4c0 8.3-5.9 15.1-13.1 15.1H13.1C5.9 500 0 493.2 0 484.9S5.9 470 13.1 470h473.8c7.2 0 13.1 6.7 13.1 14.9zM463.4 163c6.3 6.2 9.5 13.8 9.5 22.6 0 4.6-3.7 8.4-8.4 8.4H254.1c-4.6 0-8.4-3.7-8.4-8.4 0-4.6 3.7-8.4 8.4-8.4h99.8v-16.5c0-12.6 17.9-15.2 32.9-15.2h2c37.4-.8 61.8 5 74.6 17.5zm-218.2-56.5c0-4.6 3.8-8.4 8.4-8.4h141.1c.3 0 .6.1.9.1 3.7-9.6 13-16.3 23.9-16.3h48c3.1 0 5.6 2.5 5.6 5.6s-2.5 5.6-5.6 5.6h-40.8v.1h-3c-2.1 0-3.9 1.7-3.9 3.8 0 2.1 1.7 3.9 3.9 3.9h3v.1h40.1c3.1 0 5.6 2.5 5.6 5.6s-2.5 5.5-5.6 5.5h-40.1v.1h-3c-2.1 0-3.9 1.7-3.9 3.9 0 2.1 1.7 3.9 3.9 3.9h43.9c3 .1 5.5 2.5 5.5 5.5 0 3.1-2.5 5.6-5.6 5.6h-48c-10.8 0-20.1-6.8-23.8-16.3-.3.1-.7.1-1 .1H253.6c-4.6-.1-8.4-3.8-8.4-8.4zM97.4 122.1c-4.1-15.8 5.4-31.9 21.2-35.9 15.8-4.1 31.9 5.4 36 21.3 4.1 15.8-5.4 31.9-21.2 36-15.8 4-32-5.5-36-21.4z" fill="#0f87c9"/></svg>