<svg version="1.1" id="DESKTOP" xmlns="http://www.w3.org/2000/svg" x="0" y="0" viewBox="0 0 541.2 500" xml:space="preserve"><style>.st0{fill:#0088ce}</style><path class="st0" d="M541.3 249.1L305.6 488.6c-15.2 15.2-42.6 15.2-61.6 0-15.2-15.2-15.2-46.4 0-61.6l174.1-177.9L243.3 75.8c-15.2-19-15.2-46.4 0-61.6l7.6-7.6c19-11.4 42.6-7.6 57.8 7.6l232.6 234.9z"/><path class="st0" d="M309.4 249.1L73.7 488.6c-15.2 15.2-42.6 15.2-61.6 0C-3 473.4-3 442.2 12.2 427l174.1-177.9L11.4 75.8c-15.2-19-15.2-46.4 0-61.6L19 6.6C38-4.8 61.6-1 76.8 14.2l232.6 234.9z"/></svg>