<svg version="1.1" id="DESKTOP" xmlns="http://www.w3.org/2000/svg" x="0" y="0" viewBox="0 0 500 500" xml:space="preserve"><style></style><path d="M499 189.6c-2.4-7.7-8.8-13.3-16.5-14.5l-148.1-22.5-66.1-140.1C264.9 5.2 257.8.6 250 .6c-7.8 0-14.9 4.6-18.3 11.9l-66.2 140.1-148.1 22.5c-7.7 1.2-14 6.8-16.4 14.5-2.4 7.7-.4 16.2 5.2 21.8l107.1 109-25.3 154c-1.3 8 1.8 16.1 8.1 20.9 3.6 2.7 7.8 4.1 12 4.1 3.3 0 6.5-.8 9.5-2.5L250 424.2l132.4 72.7c6.9 3.7 15.2 3.1 21.5-1.6 6.3-4.8 9.4-12.8 8.1-20.9l-25.3-154 107.1-109c5.6-5.6 7.6-14.1 5.2-21.8z" fill="#0088ce"/></svg>