<svg xmlns="http://www.w3.org/2000/svg" width="500" height="500"><path d="M394.4 312.6L187.6 105.7l44.1-93.3C235.2 5.1 242.2.5 250 .5s14.9 4.6 18.3 11.9l66.2 140.1L482.6 175c7.7 1.2 14 6.8 16.4 14.5s.4 16.2-5.2 21.9l-99.4 101.2zM1 189.5c-2.4 7.7-.4 16.2 5.2 21.9l107.1 109.1-25.3 154c-1.3 8 1.9 16.1 8.1 20.9 6.3 4.8 14.6 5.4 21.5 1.6L250 424.3 382.4 497c3 1.6 6.2 2.5 9.5 2.5 4.2 0 8.4-1.4 12-4.1 1.7-1.3 2.5-3.2 3.7-4.9L82.5 165.2l-65 9.9c-7.7 1.1-14.1 6.7-16.5 14.4zM24.8 25.1c-7.6 7.6-7.6 19.9 0 27.4l426.4 426.7c3.8 3.8 8.8 5.7 13.7 5.7s9.9-1.9 13.7-5.7c7.6-7.6 7.6-19.9 0-27.4L52.2 25.1c-3.8-3.8-8.8-5.7-13.7-5.7s-9.9 1.9-13.7 5.7z" fill="#0088ce"/></svg>