<svg width="50" height="50" xmlns="http://www.w3.org/2000/svg"><defs><path d="M46.81 35.823v-.171c0-.57-.395-1.082-.958-1.139l-7.823-1.139-2.815-5.636c-.168-.399-.562-.626-1.013-.626-.168 0-.337.056-.506.113-.282.114-.45.342-.563.627-.113.284-.056.57.056.91l3.321 6.719 9.006 1.31h.169c.562 0 1.069-.4 1.125-.968M50 34.297c0 7-5.727 12.748-12.747 12.748s-12.748-5.691-12.748-12.748c0-7.057 5.728-12.747 12.748-12.747 7.076 0 12.804 5.69 12.748 12.747M37.297 19.505c2.879 0 5.565.807 7.842 2.206V6.514a2.257 2.257 0 00-2.257-2.257h-2.257a2.264 2.264 0 00-2.257 2.257v6.76a2.268 2.268 0 01-2.268 2.268h-4.503a2.257 2.257 0 01-2.257-2.257V6.514c0-2.257-1.128-2.257-1.128-2.257-1.129 0-1.129 1.58-1.129 2.257v6.77a2.257 2.257 0 01-2.257 2.258h-4.512a2.257 2.257 0 01-2.259-2.257V6.514c0-.678-.45-2.257-1.128-2.257-.677 0-1.128.595-1.128 2.257v6.77a2.257 2.257 0 01-2.257 2.258H9.028a2.257 2.257 0 01-2.257-2.257V6.514c0-2.257-1.58-2.257-2.257-2.257H2.257A2.257 2.257 0 000 6.514V38.11a4.514 4.514 0 004.514 4.514h20.45a14.74 14.74 0 01-2.532-8.283c0-8.213 6.68-14.837 14.865-14.837m-26.012-6.22c1.231 0 2.203-1.026 2.203-2.257V4.257c0-1.232-.998-2.257-2.23-2.257s-2.23 1.025-2.23 2.257v6.77a2.276 2.276 0 002.257 2.258m22.57 0a2.276 2.276 0 002.256-2.257l-.053-6.771c0-1.232-.999-2.257-2.23-2.257-1.232 0-2.23 1.025-2.23 2.257v6.77a2.276 2.276 0 002.256 2.258m-13.541-2.257V4.257A2.276 2.276 0 0122.569 2a2.276 2.276 0 012.257 2.257l-.026 6.77c0 1.232-.999 2.258-2.23 2.258a2.276 2.276 0 01-2.257-2.257" id="path-1"/></defs></svg>