<svg xmlns="http://www.w3.org/2000/svg" width="555.6" height="500"><path d="M416.7 138.9c-15.1 0-27.8-12.7-27.8-27.8V27.8c0-15.1 12.3-27.8 27.4-27.8s27.4 12.7 27.4 27.8l.7 83.3c0 15.1-12.6 27.8-27.7 27.8zM166 111.1V27.8C166 12.7 153.7 0 138.6 0s-27.4 12.7-27.4 27.8v83.3c0 15.1 12.7 27.8 27.8 27.8s27-12.7 27-27.8zm195.1-55.5v83.3c0 15.3 12.4 27.8 27.8 27.8h55.4c15.4 0 27.9-12.4 27.9-27.9V55.6c0-15.3 12.4-27.8 27.8-27.8h27.8c15.3 0 27.8 12.4 27.8 27.8v388.9c0 30.7-24.9 55.6-55.6 55.6H55.6C24.9 500 0 475.1 0 444.4V55.6c0-15.3 12.4-27.8 27.8-27.8h27.8c8.3 0 27.8 0 27.8 27.8v83.3c0 15.3 12.4 27.8 27.8 27.8h55.6c15.3 0 27.8-12.4 27.8-27.8V55.6c0-20.4 5.6-27.8 13.9-27.8s13.9 19.4 13.9 27.8v83.3c0 15.3 12.4 27.8 27.8 27.8h55.6c15.3 0 27.8-12.4 27.8-27.8V55.6c0-8.3 0-27.8 13.9-27.8-.3 0 13.6 0 13.6 27.8zm-55.9 55.5l.3-83.3c0-15.1-12.7-27.8-27.8-27.8S250 12.7 250 27.8v83.3c0 15.1 12.7 27.8 27.8 27.8s27.4-12.7 27.4-27.8z" fill="#0088ce"/></svg>