<svg xmlns="http://www.w3.org/2000/svg" viewBox="0 0 500 500"><path d="M250 0C112.1 0 0 112.1 0 250s112.1 250 250 250 250-112.1 250-250S387.9 0 250 0zm-68.2 369.7H128V208.3h53.8v161.4zm-26.5-183.3c-15.2 2.3-29.5-9.1-31.8-24.2-2.3-15.2 9.1-29.5 24.2-31.8h6.8c15.2-2.3 29.5 9.1 31.8 24.2 2.3 15.2-9.1 29.5-24.2 31.8h-3-3.8zM375 369.7h-53.8v-86.4c0-22-7.6-36.4-27.3-36.4-12.1 0-22.7 7.6-27.3 18.9-1.5 3.8-1.5 8.3-1.5 12.9v90.2h-53.8V207.6h54.5v22.7c9.8-17.4 28.8-27.3 48.5-26.5 35.6 0 62.1 22.7 62.1 72.7l-1.4 93.2z" fill="#0088ce"/></svg>