<svg version="1.1" id="Calque_1" xmlns="http://www.w3.org/2000/svg" x="0" y="0" viewBox="0 0 500 500" xml:space="preserve"><style>.st0{fill:#1f7dbf}</style><path class="st0" d="M250 116.7c-73.5 0-133.3 59.8-133.3 133.3S176.5 383.3 250 383.3 383.3 323.5 383.3 250 323.5 116.7 250 116.7zm70.5 202.2l-87.9-52.3v-100h25v87.9l75 44.7-12.1 19.7z"/><path class="st0" d="M250 0C112.1 0 0 112.1 0 250s112.1 250 250 250 250-112.1 250-250S387.9 0 250 0zm0 416.7c-91.7 0-166.7-75-166.7-166.7S157.6 83.3 250 83.3s166.7 75 166.7 166.7-75 166.7-166.7 166.7z"/></svg>