<svg version="1.1" id="Calque_1" xmlns="http://www.w3.org/2000/svg" x="0" y="0" viewBox="0 0 500 500" xml:space="preserve"><style>.st0{fill:#0088ce}</style><g id="MOBILE"><path class="st0" d="M337.1 212.1h25v25h-25z"/><path class="st0" d="M250 0C112.9 0 0 112.9 0 250s112.9 250 250 250 250-112.1 250-250S387.9 0 250 0zm-87.1 112.9h175v62.9h-175v-62.9zm174.2 275H162.9V300h175v87.9h-.8zm50.8-78.1c0 9.1-7.6 15.9-15.9 15.9h-21.2v-37.9H150v37.9h-22.7c-7.6-1.5-15.2-9.1-15.2-15.9v-106c0-9.1 7.6-15.2 15.9-15.9h244c9.1 0 15.9 7.6 15.9 15.9v106z"/></g></svg>