<svg xmlns="http://www.w3.org/2000/svg" viewBox="0 0 500 500"><path d="M250 0C112.9 0 0 112.9 0 250s112.9 250 250 250 250-112.1 250-250S387.9 0 250 0zm100 198.5v6.1c0 81.1-65.9 146.2-146.2 146.2-27.3 0-55.3-7.6-78.8-23.5h12.1c22.7 0 44.7-7.6 63.6-22.7-22.7 0-40.9-15.2-47.7-36.4 3.8 0 6.1 1.5 9.8 1.5 5.3 0 9.1-1.5 13.6-1.5-22.7-4.5-40.2-25.8-40.2-49.2 7.6 3.8 15.2 6.1 23.5 6.1-22.7-15.2-28.8-44.7-15.9-68.9 26.5 32.6 65.2 51.5 106.1 53.8-6.1-27.3 11.4-55.3 38.6-61.4 17.4-3.8 36.4 1.5 48.5 15.2 11.4-2.3 22.7-6.1 32.6-12.9-3.8 12.9-11.4 22.7-22.7 28.8 9.8-1.5 19.7-3.8 28.8-9.1-6.8 12-15.9 20.3-25.7 27.9z" fill="#0088ce"/></svg>