<svg version="1.1" id="Calque_1" xmlns="http://www.w3.org/2000/svg" x="0" y="0" viewBox="0 0 500 500" xml:space="preserve"><style>.st0{fill:#1f7dbf}</style><path class="st0" d="M122 203.8c-2.3 3.8-3 8.3-3.8 12.9l9.1 3.8 22-39.4c-12.2 3.7-22 11.3-27.3 22.7zM164.4 235.6l17.4 6.8c-4.5-6.8-7.6-13.6-9.1-22l-8.3 15.2z"/><path class="st0" d="M250 0C112.1 0 0 112.1 0 250s112.1 250 250 250 250-112.1 250-250S387.9 0 250 0zm-54.5 109.8c12.9 0 23.5 10.6 23.5 23.5s-10.6 23.5-23.5 23.5-23.5-10.6-23.5-23.5c-.8-12.8 9.8-23.5 23.5-23.5zm228 254.6H235.6v-2.3c.8-3.8.8-7.6 3-12.1 1.5-2.3 3-4.5 4.5-6.1 1.5-2.3 3.8-3.8 4.5-6.1l.8-.8.8-.8c3.8-.8 6.8-3.8 9.8-6.8 3-3 5.3-5.3 9.1-7.6 3-1.5 4.5-3 6.8-5.3l-9.1-7.6-.8-4.5 10.6-12.1-68.9-28h-1.5c-3 0-5.3-.8-7.6-2.3-2.3-1.5-3.8-3-5.3-3.8L162 246.1c10.6 15.2 16.7 29.5 18.9 42.4 5.3 27.3 1.5 48.5.8 52.3-1.5 6.8-7.6 12.1-15.2 12.1h-3c-8.3-1.5-13.6-9.8-12.1-17.4 0 0 3.8-18.2-.8-40.9-1.5-8.3-6.1-17.4-10.6-25-2.3 12.1-5.3 23.5-12.1 32.6-11.4 15.9-28 34.1-34.8 40.9l-.8.8c-5.3 6.1-15.9 6.1-22 .8s-6.8-15.2-.8-21.2c5.3-5.3 22-23.5 32.6-37.9 4.5-6.8 6.8-20.5 8.3-30.3l.8-3c0-.8 0-2.3.8-3 .8-3.8 1.5-7.6 3.8-11.4l.8-1.5 3-5.3-6.1-4.5c-2.3.8-3.8.8-6.1.8h-1.5c-6.8-.8-12.1-7.6-10.6-14.4.8-6.1 3-12.9 6.1-18.9 11.4-22.7 36.4-37.9 62.1-37.9 10.6 0 20.5 2.3 30.3 6.8 2.3.8 3.8 2.3 4.5 3.8 4.5 3.8 6.1 10.6 2.3 15.9-6.1 8.3-8.3 20.5-6.1 31.8 2.3 11.4 8.3 21.2 17.4 27.3 4.5 3 6.1 7.6 5.3 12.1l67.4 27.3 12.1-14.4 5.3-.8 6.8 5.3c2.3-1.5 4.5-2.3 6.8-3.8 2.3-.8 4.5-2.3 6.8-3.8l1.5-.8c1.5-.8 1.5-1.5 2.3-1.5h3c1.5 0 3-1.5 4.5-3 2.3-2.3 3.8-4.5 7.6-4.5 1.5 0 3-.8 4.5-.8 2.3 0 4.5-.8 6.1-.8 1.5 0 3-.8 4.5-1.5 1.5-.8 3-.8 4.5-1.5 7.6-2.3 15.9 1.5 20.5 8.3 6.8 11.4 23.5 40.9 50.8 87.9 1.5 2.3 3.8 8.3.8 12.9-1.9 4.5-5 5.2-9.5 6z"/></svg>