<svg version="1.1" id="Calque_1" xmlns="http://www.w3.org/2000/svg" x="0" y="0" viewBox="0 0 500 500" xml:space="preserve"><style>.st0{fill:#0088ce}</style><g id="MOBILE"><path class="st0" d="M250 0C112.9 0 0 112.9 0 250s112.9 250 250 250 250-112.1 250-250S387.9 0 250 0zm18.9 184.1c0 15.9-9.1 30.3-21.2 40.2-12.1 9.8-15.2 13.6-15.2 22.7s15.9 17.4 21.2 22.7c23.5 17.4 28.8 28.8 28.8 51.5 0 27.3-30.3 55.3-78.8 55.3-43.9 0-80.3-17.4-80.3-44.7s30.3-57.6 72.7-57.6h13.6c-6.1-3.8-11.4-11.4-11.4-18.9 0-5.3 1.5-9.8 3.8-13.6h-7.6c-28.8 1.5-53.8-21.2-55.3-50v-5.3c0-30.3 31.1-57.6 68.9-57.6h73.5l-15.9 17.4H247c15.9 5.3 22.7 21.2 21.9 37.9zm106.1-3.8h-34.1v34.1h-17.4v-34.1h-34.1v-17.4h34.1v-34.1h17.4v34.1H375v17.4z"/><path class="st0" d="M200 137.1c-19.7 0-32.6 19.7-30.3 44.7 1.5 22.7 18.9 40.9 42.4 44.7 19.7 0 31.1-15.9 27.3-42.4-3-25-20.5-47-39.4-47zM207.6 281.1c-30.3 0-55.3 18.9-55.3 40.9 0 22.7 21.2 40.9 51.5 40.9 40.9 0 56.1-17.4 56.1-40.2 0-2.3 0-5.3-1.5-7.6-3.8-12.1-15.9-19.7-32.6-31.1-6.1-1.4-12.2-2.9-18.2-2.9z"/></g></svg>