<svg xmlns="http://www.w3.org/2000/svg" viewBox="0 0 500 500"><path d="M250 0C112.9 0 0 112.9 0 250s112.9 250 250 250 250-112.1 250-250S387.9 0 250 0zm36.4 317.4H176.5l32.6 31.1c3.8 3.8 5.3 11.4 0 15.2-5.3 3.8-11.4 3.8-15.9 0l-52.3-50c-3.8-3.8-5.3-11.4 0-15.2l51.5-50c5.3-3.8 11.4-3.8 15.9 0 3.8 3.8 5.3 11.4 0 15.2l-32.6 31.1h109.8c6.1 0 11.4 5.3 11.4 11.4.8 7.4-4.5 12.7-10.5 11.2zM359.1 200l-53 50c-5.3 3.8-11.4 3.8-15.9 0-3.8-3.8-5.3-11.4 0-15.2l32.6-31.1H212.1c-6.1 0-11.4-5.3-11.4-11.4 0-6.1 5.3-11.4 11.4-11.4H322L289.4 150c-3.8-3.8-5.3-11.4 0-15.2 5.3-3.8 11.4-3.8 15.9 0l52.3 50c5.3 3.8 5.3 11.4 1.5 15.2.7-1.5.7 0 0 0z" fill="#0088ce"/></svg>