<svg version="1.1" id="Calque_1" xmlns="http://www.w3.org/2000/svg" x="0" y="0" viewBox="0 0 500 500" xml:space="preserve"><style>.st0{fill:#1f7dbf}</style><path class="st0" d="M250 0C112.1 0 0 112.1 0 250s112.1 250 250 250 250-112.1 250-250S387.9 0 250 0zm125 182.6v130.3c0 30.3-24.2 55.3-54.5 55.3l23.5 23.5v7.6h-31.1l-31.1-31.8h-59.1l-31.1 31.8h-34.8v-7.6l23.5-23.5c-18.2 0-34.1-9.1-44.7-23.5l-42.4 28.8c-2.3 1.5-4.5 2.3-6.8 2.3-3.8 0-7.6-2.3-10.6-5.3-3.8-6.1-2.3-13.6 3-17.4l47-31.8c-.8-3-.8-5.3-.8-8.3V163c0-55.3 62.1-62.9 125-62.9 64.4 0 116.7 7.6 123.5 53l40.9-28c6.1-3.8 13.6-2.3 17.4 3 3.8 6.1 2.3 13.6-3 17.4L375 182.6z"/><path class="st0" d="M161.4 327.3c4.5 5.3 10.6 9.1 18.2 9.1 12.9 0 23.5-10.6 23.5-23.5 0-4.5-1.5-8.3-3-11.4l-38.7 25.8z"/><circle class="st0" cx="320.5" cy="312.9" r="23.5"/><path class="st0" d="M156.1 162.9h78v62.9h-78zM265.9 226.5l78-53v-10.6h-78zM343.9 226.5v-22.7l-33.3 22.7z"/></svg>