<svg version="1.1" id="Calque_1" xmlns="http://www.w3.org/2000/svg" x="0" y="0" viewBox="0 0 500 500" xml:space="preserve"><style>.st0{fill:#0088ce}</style><g id="MOBILE"><path class="st0" d="M355.3 169.7c-5.3-11.4-13.6-19.7-25-25-7.6-2.3-15.9-5.3-25-5.3-13.6-1.5-18.9-1.5-55.3-1.5s-40.2 0-55.3 1.5c-9.1 0-17.4 1.5-25 5.3-11.4 5.3-19.7 13.6-25 25-2.3 7.6-5.3 15.9-5.3 25-1.5 13.6-1.5 18.9-1.5 55.3s0 40.2 1.5 55.3c0 9.1 1.5 17.4 5.3 25 5.3 11.4 13.6 19.7 25 25 7.6 2.3 15.9 5.3 25 5.3 13.6 0 18.9 1.5 55.3 1.5s40.2 0 55.3-1.5c9.1 0 17.4-1.5 25-5.3 11.4-5.3 19.7-13.6 25-25 2.3-7.6 5.3-15.9 5.3-25 0-13.6 1.5-18.9 1.5-55.3s0-40.2-1.5-55.3c-.8-6.8-3-15.9-5.3-25zM250 318.9c-38.6 0-68.9-31.1-68.9-68.9s31.1-68.9 68.9-68.9c38.6 0 68.9 31.1 68.9 68.9s-30.3 68.9-68.9 68.9zm72.7-125c-9.1 0-15.9-6.1-15.9-15.2s6.1-15.9 15.2-15.9 15.9 6.1 15.9 15.2c-.8 8.4-7.6 15.9-15.2 15.9z"/><circle class="st0" cx="250" cy="250" r="44.7"/><path class="st0" d="M250 0C112.9 0 0 112.9 0 250s112.9 250 250 250 250-112.1 250-250S387.9 0 250 0zm134.1 305.3c0 11.4-2.3 22.7-6.1 32.6-7.6 17.4-21.2 32.6-38.6 38.6-9.8 3.8-21.2 6.1-32.6 6.1-13.6 0-18.9 1.5-55.3 1.5s-40.9 0-55.3-1.5c-11.4 0-22.7-2.3-32.6-6.1-17.4-7.6-32.6-21.2-38.6-40.2-3.8-9.8-6.1-21.2-6.1-32.6-1.5-13.6-1.5-18.9-1.5-55.3s0-40.9 1.5-55.3c0-11.4 2.3-22.7 6.1-32.6 7.6-17.4 21.2-32.6 38.6-38.6 9.8-3.8 21.2-6.1 32.6-6.1 13.6-1.5 18.9-1.5 55.3-1.5s40.9 0 55.3 1.5c11.4 0 22.7 2.3 32.6 6.1 17.4 7.6 32.6 21.2 38.6 40.2 3.8 9.8 6.1 21.2 6.1 32.6 0 15.2 1.5 18.9 1.5 55.3s-.8 40.9-1.5 55.3z"/></g></svg>