<svg xmlns="http://www.w3.org/2000/svg" viewBox="0 0 500 500"><path d="M250 0C112.1 0 0 112.1 0 250s112.1 250 250 250 250-112.1 250-250S387.9 0 250 0zm25.8 305.3c-14.4 0-27.3-6.8-34.8-18.2 0 0-8.3 33.3-9.8 39.4-6.1 16.7-14.4 32.6-25.8 47-.8.8-1.5 1.5-2.3.8-.8 0-.8-.8-.8-1.5-3-18.2-3-36.4 0-54.5l17.4-78c-3-6.8-4.5-15.2-4.5-22.7 0-21.2 12.9-37.9 27.3-37.9 10.6-.8 19.7 7.6 19.7 18.2v3.8c-3 17.4-6.8 34.1-12.9 50.8-3 12.1 3.8 24.2 15.2 27.3 2.3.8 4.5.8 7.6.8 27.3 0 45.5-34.8 45.5-76.5 0-31.1-21.2-55.3-59.8-55.3-37.9-1.5-68.9 27.3-71.2 65.2v3.8c-.8 10.6 3 20.5 9.8 28 2.3 2.3 3 5.3 2.3 8.3l-3 11.4c-.8 3-3 4.5-6.1 3.8h-1.5c-20.5-10.6-31.8-32.6-29.5-54.5 0-40.2 34.1-90.2 103-90.2 47-3 87.9 33.3 90.9 80.3v2.3c.5 56.4-30.5 98.1-76.7 98.1z" fill="#0088ce"/></svg>