<svg xmlns="http://www.w3.org/2000/svg" viewBox="0 0 500 500"><path d="M232.6 74.6c20.5 0 37.2-16.7 37.2-37.3S253.1.1 232.6.1c-20.6 0-37.2 16.7-37.2 37.2 0 20.5 16.6 37.3 37.2 37.3zm0 360.3c40.7 0 77-19.6 99.8-49.9.1-.1.2-.2.2-.3 0 0 0-.2-.1-.7-1.1-6-8.9-47.3-10.7-55.9-.1-.6-.5-.4-.6 0-8.4 41.2-44.9 72.4-88.6 72.4-49.9 0-90.5-40.6-90.5-90.5 0-30.3 15.3-57.5 38.7-74.1v-39.5c-7.3 3.3-14.1 7.4-20.5 12 .1-.6.2-1.3.2-1.9 0-27.9 14.2-52.6 35.7-67.2v109.2c-.2 12.3 9.7 22.5 22 22.7l44.4.6h1.1c23.5 0 50 3.3 56.9 7.3 5.1 6.6 13.9 33 19.2 57.9l8.1 45.1c1.9 10.8 11.4 18.5 22 18.5 1.3 0 2.6-.1 4-.4 12.2-2.2 20.2-13.9 18-26l-8.2-45.5c0-.2-.1-.5-.1-.7-4-18.8-15.1-64.3-31.7-81-17-17-59.5-19.9-85.7-19.9v-62.6c19.8 14.8 44 23.2 69.2 23.2 8.4 0 16.9-.9 25.4-2.8 9.3-2.1 15.1-11.3 13-20.6s-11.3-15.1-20.6-13c-38 8.6-76.8-11.2-92.2-47.1-3.9-10.7-12.9-13.3-19.6-13.2C177.8 91 126 142.8 126 206.5c0 9.3 7.4 16.9 16.7 17.2-21.6 22.6-35 53.1-35 86.4 0 68.8 56 124.8 124.9 124.8zM486.9 470H13.1C5.9 470 0 476.7 0 484.9c0 8.4 5.9 15.1 13.1 15.1h473.8c7.2 0 13.1-6.7 13.1-15.1 0-8.2-5.9-14.9-13.1-14.9z" fill="#0f87c9"/></svg>