<svg width="50" height="50" xmlns="http://www.w3.org/2000/svg"><defs><path d="M18.698 21.474c1.144-1.144 1.187-3.041.042-4.186l-3.37-3.37a9.41 9.41 0 00-6.665-2.755l-5.777.007A2.932 2.932 0 000 14.1v.06a2.932 2.932 0 002.932 2.932H8.76c.905 0 1.773.359 2.413 1l3.382 3.38a2.93 2.93 0 004.143 0m7.858 7.773c-1.145 1.145-1.187 3.042-.043 4.187l3.44 3.438a9.412 9.412 0 006.62 2.756l1.234.004a1.373 1.373 0 011.368 1.374v2.945a.852.852 0 001.368.679l8.878-6.771a1.47 1.47 0 000-2.338l-8.878-6.771a.852.852 0 00-1.368.678v2.922c0 .759-.615 1.374-1.374 1.374h-1.213c-.905 0-1.773-.36-2.413-1l-3.476-3.477a2.932 2.932 0 00-4.143 0M2.932 33.712H8.76c.905 0 1.773-.36 2.413-1l18.78-18.779a9.408 9.408 0 016.62-2.756l1.234-.005A1.373 1.373 0 0039.175 9.8V6.854a.852.852 0 011.368-.678l8.878 6.771a1.47 1.47 0 010 2.337l-8.878 6.77a.852.852 0 01-1.368-.676v-2.923c0-.759-.615-1.373-1.374-1.373h-1.213c-.905 0-1.773.36-2.413.999L15.37 36.886a9.41 9.41 0 01-6.666 2.756l-5.777-.008C1.311 39.632 0 38.261 0 36.644a2.931 2.931 0 012.932-2.932" id="path-1"/></defs></svg>