<svg version="1.1" id="Calque_1" xmlns="http://www.w3.org/2000/svg" x="0" y="0" viewBox="0 0 50 50" xml:space="preserve"><style>.st0{fill:#231f20}</style><path class="st0" d="M26.6 0H8.9C7.2 0 5.7 1.4 5.7 3.2v43.6c0 1.8 1.4 3.2 3.2 3.2h32.2c1.8 0 3.2-1.4 3.2-3.2V17.5c0-.7-.3-1.3-.8-1.8L28.7.9c-.6-.6-1.3-.9-2.1-.9zm12.3 45.7H11c-.6 0-1-.5-1-1V5.3c0-.6.5-1 1-1h14.4c1.4 0 2.5 1.1 2.5 2.5v8.5c0 .7.6 1.3 1.3 1.3H38c1.1 0 2 .9 2 2v26.2c0 .4-.5.9-1.1.9z"/><path class="st0" d="M35.2 25.3c0 1.1-.9 2-2 2H17.4c-1.1 0-2-.9-2-2s.9-2 2-2h15.8c1.1 0 2 .9 2 2zM23.8 14.9c0 1.1-.9 2-2 2h-4.5c-1.1 0-2-.9-2-2s.9-2 2-2h4.5c1.2.1 2 1 2 2zM30.3 35.5c0 1.1-.9 2-2 2H17.4c-1.1 0-2-.9-2-2s.9-2 2-2h10.9c1.1 0 2 .9 2 2z"/></svg>