<svg version="1.1" id="Calque_1" xmlns="http://www.w3.org/2000/svg" x="0" y="0" viewBox="0 0 475 500" xml:space="preserve"><style>.st0{fill:#0088ce}</style><path class="st0" d="M209.8 354.5c7.6 7.6 18.2 11.4 28 11.4s20.5-3.8 28-11.4L406 214.3c15.2-15.2 15.2-40.9 0-56.1-15.2-15.2-40.9-15.2-56.1 0l-72.7 72.7V39.4c0-22-17.4-39.4-39.4-39.4s-39.4 17.4-39.4 39.4v190.9l-72.7-72.7c-15.2-15.2-40.9-15.2-56.1 0-15.2 15.2-15.2 40.9 0 56.1l140.2 140.8zM435.6 420.5H39.4c-22 0-39.4 17.4-39.4 39.4C0 482.6 17.4 500 39.4 500h396.2c22 0 39.4-17.4 39.4-39.4.8-22-17.4-40.1-39.4-40.1z"/></svg>