<svg version="1.1" id="Calque_1" xmlns="http://www.w3.org/2000/svg" x="0" y="0" viewBox="0 0 500 500" xml:space="preserve"><style>.st0{fill:#0088ce}</style><path class="st0" d="M458.3 0H250c-22.7 0-41.7 18.9-41.7 41.7s18.9 41.7 41.7 41.7h107.6L178.8 262.1c-15.9 15.9-15.9 42.4 0 59.1 8.3 8.3 18.9 12.1 29.5 12.1 10.6 0 21.2-3.8 29.5-12.1l178.8-178.8V250c0 22.7 18.9 41.7 41.7 41.7 22.7 0 41.7-18.9 41.7-41.7V41.7C500 18.9 481.1 0 458.3 0z"/><path class="st0" d="M375 500H41.7C18.9 500 0 481.1 0 458.3V125c0-22.7 18.9-41.7 41.7-41.7s41.7 18.9 41.7 41.7v291.7H375c22.7 0 41.7 18.9 41.7 41.7 0 22.7-19 41.6-41.7 41.6z"/></svg>