<svg width="50" height="50" xmlns="http://www.w3.org/2000/svg" xmlns:xlink="http://www.w3.org/1999/xlink"><defs><path d="M10.612 42.155c0-1.99 1.508-3.513 3.48-3.513 1.971 0 3.479 1.523 3.479 3.513a3.506 3.506 0 01-3.48 3.513 3.506 3.506 0 01-3.479-3.513zm10.844-2.166c-.928-3.279-3.885-5.68-7.365-5.68-3.479 0-6.436 2.401-7.364 5.68H2.146A2.15 2.15 0 000 42.155c0 1.23.928 2.166 2.146 2.166h4.58C7.656 47.601 10.613 50 14.092 50c3.48 0 6.437-2.4 7.365-5.679h26.398A2.15 2.15 0 0050 42.155c0-1.23-.928-2.166-2.146-2.166H21.456zM17.571 7.846c0 1.99-1.508 3.513-3.48 3.513-1.971 0-3.479-1.64-3.479-3.513 0-1.874 1.624-3.513 3.48-3.513a3.506 3.506 0 013.479 3.513zM6.727 10.012c.928 3.279 3.885 5.68 7.364 5.68 3.48 0 6.437-2.401 7.365-5.68h26.398A2.15 2.15 0 0050 7.846c0-1.23-.928-2.166-2.146-2.166H21.456C20.528 2.4 17.571 0 14.091 0c-3.479 0-6.436 2.401-7.364 5.68H2.146A2.15 2.15 0 000 7.846c0 1.23.928 2.166 2.146 2.166h4.58zm25.876 14.989c0-1.991 1.508-3.513 3.48-3.513 1.971 0 3.479 1.522 3.479 3.513a3.506 3.506 0 01-3.48 3.512 3.506 3.506 0 01-3.479-3.512zm10.832-2.167c-.928-3.278-3.886-5.679-7.365-5.679-3.48 0-6.437 2.46-7.423 5.68H2.146A2.15 2.15 0 000 25c0 1.17.928 2.166 2.146 2.166h26.501c.928 3.279 3.886 5.679 7.365 5.679 3.48 0 6.437-2.4 7.365-5.68h4.477A2.15 2.15 0 0050 25a2.067 2.067 0 00-2.088-2.166h-4.477z" id="a"/></defs><use fill="#0088CE" xlink:href="#a" fill-rule="evenodd"/></svg>