<svg xmlns="http://www.w3.org/2000/svg" viewBox="0 0 500 500"><path d="M107.6 435c45.4 0 83.8-30.3 96.2-71.7l32.6 3c17 1.5 32.2-12 34.1-30.2.1-1 .2-3 .2-3 0-.6 0-1.1-.1-1.7 1.1-45.1 26.7-86.1 66.3-107.1l8.4 21.4c-31.8 16.9-53.5 50.3-53.5 88.8 0 55.4 45.1 100.5 100.5 100.5s100.5-45.1 100.5-100.5S447.7 234 392.3 234c-8.3 0-16.4 1.1-24.1 3l-12-30.4-21.7-63.6c-1.7-4.9-6.4-8.3-11.6-8.3l-54.2-.2c-6.8 0-12.3 5.4-12.3 12.2 0 6.8 5.5 12.3 12.3 12.3 0 0 33.1.1 45.4.2 2.7 7.9 9.7 28 14.4 41.8-39.7 19.9-68.1 56.3-78.3 98.6-11 .9-35.5 3.4-46.9 4.6-2.7-8.2-41.8-102.2-41.8-102.2h12.3c6.8 0 12.3-5.5 12.3-12.3s-5.5-12.3-12.3-12.3h-60.4c-6.8 0-12.3 5.5-12.3 12.3s5.5 12.3 12.3 12.3H135l16.6 42.3c-13.3-6.6-28.3-10.3-44.1-10.3C52.2 234 7.1 279.1 7.1 334.5S52.2 435 107.6 435zm275-94.7c2.5 6.3 9.6 9.4 16 6.9 6.3-2.5 9.4-9.6 6.9-16l-27-68.6c4.5-.9 9.2-1.4 14-1.4 40.4 0 73.2 32.8 73.2 73.2s-32.8 73.2-73.2 73.2-73.2-32.8-73.2-73.2c0-26.9 14.6-50.3 36.3-63.1l27 69zm-275-78.9c30.7 0 57.1 19.1 67.9 45.9l-.5.1-66.8 7.4c-9.6 1.1-17 9.8-17.1 20-.2 10.2 6.9 18.7 16.5 19.6l66.6 6.2 1.8.2c-10.6 27.5-37.2 47-68.3 47-40.4 0-73.2-32.8-73.2-73.2-.1-40.4 32.7-73.2 73.1-73.2zM486.9 470H13.1C5.9 470 0 476.7 0 484.9c0 8.4 5.9 15.1 13.1 15.1h473.8c7.2 0 13.1-6.7 13.1-15.1 0-8.2-5.9-14.9-13.1-14.9z" fill="#0f87c9"/></svg>