<svg xmlns="http://www.w3.org/2000/svg" viewBox="0 0 493 495.94"><defs><style>.a{fill:#0088ce}</style></defs><path class="a" d="M243.74 376.09a126.65 126.65 0 000-253.3c-69.48 0-126.65 57.17-126.65 126.65a126.31 126.31 0 00126.65 126.65zm0-208.82a82.17 82.17 0 11-82.16 82.17 82.17 82.17 0 0182.16-82.17z"/><path class="a" d="M14 408.08C25 443 53 468 84.95 481.97a169.27 169.27 0 0059.93 11.21c26.47 2.76 34.74 2.76 101.65 2.76s76.65-2.76 101.65-2.76a168.51 168.51 0 0059.93-11.21c32-11 57-39 70.95-70.95a169.49 169.49 0 0011.21-59.93c1.29-26.47 2.76-34.74 2.76-101.65s-2.79-73.67-2.79-101.67A168.73 168.73 0 00479 87.86c-11-34.92-39-59.92-70.95-73.89a169.27 169.27 0 00-59.9-11.2C321.68 0 313.41 0 246.5 0s-76.65 0-101.65 2.77a168.51 168.51 0 00-59.93 11.2c-32 11-57 39-70.95 71A169.49 169.49 0 002.76 144.9C0 171.32 0 179.59 0 246.5s0 76.65 2.76 101.65A168.73 168.73 0 0014 408.08zm26.44-260.31c0-16.73 5.51-32 9.74-46a91.74 91.74 0 0146-45.95c14-7 29.22-9.74 46-9.74 27.76-2.76 34.74-2.76 101.65-2.76s76.65 0 101.65 2.76c16.73 0 32 5.51 46 9.74a91.76 91.76 0 0145.95 46c4.23 16.73 8.27 33.46 9.75 46 2.75 27.76 2.75 34.74 2.75 101.65s-2.75 76.65-2.75 101.65c0 16.73-5.52 32-9.75 46a91.76 91.76 0 01-45.95 46c-14 7-29.23 9.74-46 9.74-27.75 2.76-34.74 2.76-101.65 2.76s-76.74-2.85-101.74-2.85c-16.73 0-32-5.51-46-9.74a91.74 91.74 0 01-46-46c-7-14-9.74-29.23-9.74-46-2.76-27.75-2.76-34.74-2.76-101.65s.09-76.61 2.85-101.61z"/><path class="a" d="M377.38 146.32c14 0 26.47-13.79 27.94-29.23 0-16.73-12.5-27.94-29.23-27.94s-27.94 12.5-27.94 29.23 12.5 27.94 29.23 27.94z"/></svg>