<svg version="1.1" id="Calque_1" xmlns="http://www.w3.org/2000/svg" x="0" y="0" width="500" height="500" xml:space="preserve"><style>.st0{fill:#0f87c9}</style><path class="st0" d="M152.9 131.4v237.2H206v-99h87.9v99h53.3V131.4h-53.3v91.5H206v-91.5z"/><path class="st0" d="M34.4 416V83.9c0-27.3 22-49.4 49-49.4h333.1c27.1 0 49.1 22.2 49.1 49.4V416c0 27.3-22 49.5-49.1 49.5h-333c-27.1 0-49.1-22.2-49.1-49.5M83.5 0C37.5 0 0 37.6 0 83.9V416c0 46.4 37.5 84 83.5 84h333.1c46 0 83.4-37.6 83.4-84V83.9C500 37.6 462.6 0 416.6 0H83.5z"/></svg>