<svg version="1.1" id="Calque_1" xmlns="http://www.w3.org/2000/svg" x="0" y="0" width="500" height="500" xml:space="preserve"><style>.st0{fill:#0f87c9}</style><path class="st0" d="M250.1 37.2c-117.3 0-212.7 95.2-212.7 213.2 0 117.2 95.4 212.4 212.7 212.4s212.7-95.2 212.7-212.4c-.1-118-95.5-213.2-212.7-213.2m0 462.8C111.8 500 0 388.4 0 250.4 0 111.6 111.8 0 250.1 0 388.3 0 500 111.6 500 250.4c0 138-111.7 249.6-249.9 249.6"/><path class="st0" d="M287.9 297.8c0 30.4-21.5 35.1-45.7 35.1H212v-65.1h27.5c16.9-.1 48.4.9 48.4 30m-5.1-93.6c0 26.8-27.4 26.5-44.9 26.5H212v-53.6h25.1c17 0 45.7-.7 45.7 27.1m57.1 94.9c0-33.1-20.6-52.3-45-55.6v-.6c18.1-3.3 37.3-21.5 37.3-45.5 0-50.6-46.7-59.3-84.8-59.3H160v233.4h83.8c44.3 0 96.1-13.5 96.1-72.4"/></svg>