<svg version="1.1" id="Calque_1" xmlns="http://www.w3.org/2000/svg" x="0" y="0" viewBox="0 0 500 500" xml:space="preserve"><style>.linetram1-1{fill:#0f87c9}</style><path class="linetram1-1" d="M296.4 387.5V118h-47.1c-12.3 9.6-41.3 27.5-72.7 42.4l-16.4 7.7 18.3 41.2 14.2-7.3c9.9-5 37.1-19.1 46.3-26.4v211.8h57.4zM500 249.9c0 139-111.7 250.1-249.5 250.1C112.6 500 0 388.3 0 249.9 0 112.6 112.6 0 250.5 0 383.9 0 500 112 500 249.9m-34 0C466 131 368.9 34.5 250.5 34.5 131.7 34.5 34.6 131 34.6 249.9c0 119.4 97.1 215.5 215.9 215.5 118.4 0 215.5-96.6 215.5-215.5"/><path class="linetram1-1" d="M296.4 387.5V118h-47.1c-12.3 9.6-41.3 27.5-72.7 42.4l-16.4 7.7 18.3 41.2 14.2-7.3c9.9-5 37.1-19.1 46.3-26.4v211.8h57.4zM500 249.9c0 139-111.7 250.1-249.5 250.1C112.6 500 0 388.3 0 249.9 0 112.6 112.6 0 250.5 0 383.9 0 500 112 500 249.9m-34 0C466 131 368.9 34.5 250.5 34.5 131.7 34.5 34.6 131 34.6 249.9c0 119.4 97.1 215.5 215.9 215.5 118.4 0 215.5-96.6 215.5-215.5"/></svg>