<svg xmlns="http://www.w3.org/2000/svg" width="808.5" height="500"><path d="M641.3 165.4c-13.7 0-27.2 1.9-40.1 5l-19.9-50.6-36.5-105.7C541.9 5.9 534.3.4 525.6.4L435.5 0C424.2 0 415 9.1 415 20.4c0 11.3 9.1 20.4 20.4 20.5 0 0 55.1.2 75.5.3 4.5 13.1 16.2 46.7 23.9 69.5-66.1 33.2-113.4 93.6-130.3 164-18.3 1.6-59.2 5.7-78.1 7.6C322 268.6 256.9 112 256.9 112h20.5c11.3 0 20.5-9.2 20.5-20.5S288.6 71 277.3 71H176.7c-11.3 0-20.5 9.1-20.5 20.5 0 11.3 9.2 20.5 20.5 20.5H213l27.7 70.5c-22.2-10.8-47.1-17.1-73.4-17.1C75 165.4 0 240.5 0 332.8 0 425 75 500 167.2 500c75.5 0 139.6-50.5 160.1-119.3l54.2 5c28.3 2.6 53.7-19.9 56.8-50.3.2-1.6.3-5 .3-5 0-1 0-1.9-.2-2.7 1.9-75 44.3-143.3 110.4-178.2l14.1 35.6c-52.9 28.1-89.1 83.8-89.1 147.8 0 92.2 75 167.2 167.4 167.2s167.4-75 167.4-167.2c-.1-92.4-75.1-167.5-167.3-167.5zM167.2 454.6c-67.1 0-121.8-54.7-121.8-121.8S100.1 211 167.2 211c51.1 0 94.9 31.7 112.9 76.5l-.8.2L168 300c-16 1.8-28.3 16.3-28.5 33.2-.3 16.8 11.5 31.2 27.3 32.7l110.8 10.3 2.9.3c-17.2 45.6-61.5 78.1-113.3 78.1zm474.1 0c-67.3 0-121.9-54.7-121.9-121.8 0-44.8 24.4-83.8 60.3-104.9l45.1 114.5c4.2 10.5 16 15.7 26.5 11.5 10.5-4.2 15.7-16 11.5-26.5l-45-114.2c7.6-1.5 15.4-2.3 23.3-2.3 67.1 0 121.8 54.7 121.8 121.8.2 67.2-54.5 121.9-121.6 121.9z" fill="#0088ce"/></svg>