<svg version="1.1" id="Calque_1" xmlns="http://www.w3.org/2000/svg" x="0" y="0" width="500" height="500" xml:space="preserve"><style>.st0{fill:#0f87c9}</style><path class="st0" d="M249.8 37.2c-117.3 0-212.5 95.4-212.5 213.3 0 117 95.2 212.3 212.5 212.3 117.4 0 212.9-95.3 212.9-212.3 0-117.9-95.4-213.3-212.9-213.3m0 462.8C111.7 500 0 388.4 0 250.5 0 111.4 111.7 0 249.8 0 388.1 0 500 111.4 500 250.5 500 388.4 388.1 500 249.8 500"/><path class="st0" d="M278.5 288.5h-61l24.2-74.4c2.9-9.2 5.9-21.5 5.9-29.4h.6c0 7.2 2.8 19.5 6.2 29.4l24.1 74.4zm82.5 72.7l-83.3-233.9h-55.9L139 361.2h51l14.7-44.4H291l14.6 44.4H361z"/></svg>