<svg version="1.1" id="Calque_1" xmlns="http://www.w3.org/2000/svg" x="0" y="0" width="500" height="500" xml:space="preserve"><style>.st0{fill:#0f87c9}</style><path class="st0" d="M249.9 37.1c-117.1 0-212.7 95.3-212.7 213.2 0 117.2 95.6 212.5 212.7 212.5 117.4 0 212.8-95.3 212.8-212.5 0-117.8-95.5-213.2-212.8-213.2m0 462.9C111.9 500 0 388.3 0 250.3 0 111.6 111.9 0 249.9 0 388.1 0 500 111.6 500 250.3c0 138-111.9 249.7-250.1 249.7"/><path class="st0" d="M324.9 372.5v-41.9h-97.8v-61.2h89.6v-40.3h-89.6v-47.8h92.7v-42.1H175.2v233.3z"/></svg>