<svg width="50" height="50" xmlns="http://www.w3.org/2000/svg"><defs><path d="M4.894 46.517c.261-.052.514-.127.76-.23.253-.104.49-.23.706-.38.23-.15.44-.32.625-.505a4.13 4.13 0 001.198-2.895c0-.267-.03-.535-.082-.796a3.947 3.947 0 00-.231-.765 4.17 4.17 0 00-.38-.707 4.43 4.43 0 00-.505-.625 4.041 4.041 0 00-.618-.506 4.386 4.386 0 00-.706-.38 4.672 4.672 0 00-.767-.23 4.14 4.14 0 00-3.696 1.116 4.488 4.488 0 00-.506.625 4.17 4.17 0 00-.38.707 4.539 4.539 0 00-.23.765 4.082 4.082 0 00-.082.796c0 1.08.439 2.135 1.198 2.895a4.137 4.137 0 002.893 1.197c.268 0 .536-.03.803-.082m0-17.207c.261-.05.514-.133.767-.23.246-.104.484-.23.706-.379.224-.149.432-.32.618-.506a4.09 4.09 0 000-5.787 3.69 3.69 0 00-.618-.514 4.944 4.944 0 00-.706-.372 4.856 4.856 0 00-.767-.238 4.129 4.129 0 00-1.599 0c-.26.06-.521.134-.767.238a4.984 4.984 0 00-.705.372A4.122 4.122 0 000 25.3c0 .268.03.535.082.797.052.26.134.52.23.765.104.245.23.484.38.707.149.223.32.431.506.625a4.302 4.302 0 001.33.886c.246.096.506.178.767.23.26.051.529.081.796.081.268 0 .536-.03.803-.082m2.091-18.33a4.126 4.126 0 001.198-2.892c0-1.072-.44-2.128-1.198-2.886a3.65 3.65 0 00-.618-.514 3.662 3.662 0 00-.706-.372 4.19 4.19 0 00-.767-.238 4.158 4.158 0 00-1.599 0 4.019 4.019 0 00-.767.238 4.015 4.015 0 00-1.33.885A4.118 4.118 0 000 8.089c0 1.078.439 2.135 1.198 2.893a4.111 4.111 0 002.893 1.206 4.098 4.098 0 002.894-1.206m43.012 31.528a4.092 4.092 0 00-4.091-4.092H17.017a4.092 4.092 0 000 8.183h28.889a4.092 4.092 0 004.091-4.091m0-17.209a4.091 4.091 0 00-4.091-4.091H17.017a4.091 4.091 0 000 8.183h28.889a4.092 4.092 0 004.091-4.092m-4.091-13.117H17.017a4.092 4.092 0 010-8.183h28.889a4.092 4.092 0 010 8.183" id="path-1"/></defs></svg>