<svg width="50" height="50" xmlns="http://www.w3.org/2000/svg"><defs><path d="M50 24.747a4.178 4.178 0 00-4.177-4.178h-4.146a4.177 4.177 0 000 8.355h4.146A4.178 4.178 0 0050 24.747m-37.5 0a4.178 4.178 0 00-4.177-4.178H4.177a4.178 4.178 0 000 8.355h4.146a4.178 4.178 0 004.177-4.177m18.75 0a4.178 4.178 0 00-4.177-4.178h-4.146a4.178 4.178 0 000 8.355h4.146a4.178 4.178 0 004.177-4.177M50 7.177A4.178 4.178 0 0045.823 3h-4.146a4.177 4.177 0 000 8.354h4.146A4.178 4.178 0 0050 7.177m-37.5 0A4.178 4.178 0 008.323 3H4.177a4.178 4.178 0 000 8.354h4.146A4.178 4.178 0 0012.5 7.177m18.75 0A4.178 4.178 0 0027.073 3h-4.146a4.178 4.178 0 000 8.354h4.146a4.178 4.178 0 004.177-4.177M50 42.317a4.178 4.178 0 00-4.177-4.177h-4.146a4.177 4.177 0 000 8.354h4.146A4.178 4.178 0 0050 42.317m-37.5 0a4.178 4.178 0 00-4.177-4.177H4.177a4.178 4.178 0 000 8.354h4.146a4.178 4.178 0 004.177-4.177m18.75 0a4.178 4.178 0 00-4.177-4.177h-4.146a4.178 4.178 0 000 8.354h4.146a4.178 4.178 0 004.177-4.177" id="path-1"/></defs></svg>