<svg width="50" height="50" xmlns="http://www.w3.org/2000/svg" xmlns:xlink="http://www.w3.org/1999/xlink"><defs><path d="M46.315 19.303L30.721 3.63l1.46-1.465c2.865-2.887 7.88-2.887 10.748 0l4.844 4.868A7.6 7.6 0 0150 12.434a7.61 7.61 0 01-2.227 5.403l-1.458 1.466zM30.458 16.75l2.801 2.817L20.82 32.07l-2.8-2.818L30.457 16.75zM7.678 34.473l7.771 7.81L4.8 45.178l2.88-10.704zM2.501 49.93a7294.073 7294.073 0 0016.917-4.22c.392-.107.903-.388 1.433-.815l22.662-22.775L27.917 6.446 5.257 29.217a2.49 2.49 0 00-.515.893L.068 47.486c-.184.69.012 1.426.512 1.93.379.378.885.584 1.404.584.17 0 .346-.023.517-.071z" id="a"/></defs><use fill="#0088CE" xlink:href="#a" fill-rule="evenodd"/></svg>