<svg width="50" height="50" xmlns="http://www.w3.org/2000/svg"><defs><path d="M27.733 6.039l-12.36-5.8a2.525 2.525 0 00-3.37 1.248c-.589 1.285-.037 2.811 1.234 3.408l4.667 2.19c-6 1.997-10.736 6.987-12.324 13.35-2.024 8.11 1.361 16.475 8.424 20.814.411.253.866.374 1.315.374a2.53 2.53 0 002.17-1.235 2.583 2.583 0 00-.85-3.526c-5.147-3.162-7.614-9.258-6.138-15.17 1.194-4.787 4.834-8.505 9.407-9.862l-2.07 5.113c-.53 1.312.092 2.81 1.388 3.347.315.13.64.192.96.192 1 0 1.947-.601 2.35-1.595l5.197-12.848zM44.42 29.564c-1.588 6.363-6.325 11.354-12.325 13.35l4.668 2.192a2.578 2.578 0 011.233 3.407A2.535 2.535 0 0135.694 50c-.359 0-.721-.077-1.067-.24l-12.36-5.8 5.197-12.847a2.528 2.528 0 013.31-1.403c1.297.536 1.918 2.035 1.388 3.347l-2.07 5.113c4.573-1.357 8.213-5.075 9.408-9.862 1.475-5.912-.992-12.008-6.138-15.17a2.583 2.583 0 01-.852-3.526 2.522 2.522 0 013.486-.862c7.063 4.34 10.448 12.704 8.424 20.814z" id="path-1"/></defs></svg>