<svg xmlns="http://www.w3.org/2000/svg" viewBox="0 0 90 90"><path d="M15.35 33.48a2.93 2.93 0 01-1.5-1.75 3.1 3.1 0 01.2-2.3 2.7 2.7 0 011.7-1.5l14-4.6a3 3 0 012.3.2 2.84 2.84 0 011.5 1.75 3 3 0 01-.15 2.25 3.08 3.08 0 01-1.75 1.55l-14 4.55a3.25 3.25 0 01-2.3-.15zM21 43.68a6 6 0 01-1.75-4.4A6.16 6.16 0 0121 34.83a6.42 6.42 0 014.5-1.75 6.23 6.23 0 016.25 6.2 5.73 5.73 0 01-1.9 4.4 5.74 5.74 0 01-4.35 1.85 6.26 6.26 0 01-4.5-1.85zM66 60.78a2.77 2.77 0 01-1.9 1.3l-33.25 6.5a2.91 2.91 0 01-2.25-.45 3 3 0 01-1.3-1.95 2.64 2.64 0 01.5-2.2 2.78 2.78 0 011.9-1.3l33.3-6.5a2.62 2.62 0 012.25.45 3 3 0 011.3 1.9 2.75 2.75 0 01-.55 2.25zM68.6 43.68a5.74 5.74 0 01-4.35 1.85 6.26 6.26 0 01-4.5-1.85 6 6 0 01-1.75-4.4 6.16 6.16 0 011.75-4.45 6.42 6.42 0 014.5-1.75 6.23 6.23 0 016.25 6.2 5.73 5.73 0 01-1.9 4.4zM76 31.73a2.87 2.87 0 01-1.5 1.75 3.25 3.25 0 01-2.3.15l-14-4.55a2.93 2.93 0 01-1.7-1.55 2.68 2.68 0 01-.2-2.25 2.9 2.9 0 011.5-1.75 3 3 0 012.3-.2l13.9 4.6a3 3 0 011.8 1.5 3.14 3.14 0 01.2 2.3z"/></svg>