<svg xmlns="http://www.w3.org/2000/svg" viewBox="0 0 90 90"><path d="M19.4 30.29a5.83 5.83 0 001.8 4.35 6.1 6.1 0 004.45 1.85 5.91 5.91 0 004.4-1.85 5.73 5.73 0 001.85-4.35A6.15 6.15 0 0025.65 24a6.07 6.07 0 00-6.25 6.25zM68.1 46.49a2.92 2.92 0 00-2.15-.9h-41.6a2.78 2.78 0 00-2.1.9 3 3 0 00-.9 2.2q.06 10.85 6.7 16.45h.05q6.06 5.25 17.25 5.25 10.8 0 16.85-5.45Q69 59.29 69 48.69a3 3 0 00-.9-2.2zm-9.85 14v-.05q-4.7 3.95-12.9 4-8.6 0-13.35-3.85a14.08 14.08 0 01-4.4-8.9h35.15a14.28 14.28 0 01-4.5 8.8zM64.4 36.49a5.74 5.74 0 004.35-1.85 5.67 5.67 0 001.9-4.35 6 6 0 00-1.9-4.5A5.87 5.87 0 0064.4 24a6.07 6.07 0 00-6.25 6.25A5.83 5.83 0 0060 34.64a6.1 6.1 0 004.4 1.85z"/></svg>