<svg xmlns="http://www.w3.org/2000/svg" viewBox="0 0 90 90"><path d="M19.32 33.12a6 6 0 011.8-4.45 6.21 6.21 0 014.45-1.75 6.23 6.23 0 016.25 6.2 5.86 5.86 0 01-1.9 4.4 5.77 5.77 0 01-4.35 1.85 6.06 6.06 0 01-4.45-1.85 6 6 0 01-1.8-4.4zM65.72 66.47a2.84 2.84 0 01-2 .9 2.92 2.92 0 01-2.15-.9 2.74 2.74 0 01-1-2q-.06-6.9-4-10.55-4.2-3.36-11.8-3.35-7.26 0-11.4 3.5t-4.1 10.4a2.84 2.84 0 01-.9 2 2.88 2.88 0 01-2.1.9 2.92 2.92 0 01-2.15-.9 3 3 0 01-.9-2.1q0-9.75 6.2-15 5.49-5 15.35-5 10.2 0 15.7 4.85 6.09 5.1 6.15 15.05a3 3 0 01-.9 2.2zM68.67 37.52a5.77 5.77 0 01-4.35 1.85 6.06 6.06 0 01-4.45-1.85 6.34 6.34 0 010-8.85 6.21 6.21 0 014.45-1.75 6.23 6.23 0 016.25 6.2 5.86 5.86 0 01-1.9 4.4z"/></svg>