<svg xmlns="http://www.w3.org/2000/svg" width="581.1" height="500"><path d="M581.1 249.9C581.1 387.8 468.9 500 331 500c-68.6 0-135-28.6-182.1-78.6-9.4-10-9-25.6 1-35 9.9-9.3 25.6-8.8 34.9 1 38.4 40.7 90.2 63.1 146.1 63.1 110.7 0 200.7-90 200.7-200.7s-90-200.5-200.5-200.5-200.7 90-200.7 200.7v.7l36.5-49.1c8.1-10.9 23.7-13.3 34.6-5.1 10.9 8.1 13.3 23.6 5.1 34.5l-83.9 112.9-112.7-84c-10.9-8.1-13.3-23.6-5.1-34.5 8.1-10.9 23.7-13.3 34.6-5.1l41.7 31c0-.5-.1-.9-.1-1.3C81.1 112.2 193.3 0 331.2 0c137.7-.1 249.9 112.1 249.9 249.9zm-110.9 48.9c1.3.2 2.6.3 3.8.3 12 0 22.4-8.7 24.4-20.9 2.1-13.5-7.1-26.2-20.6-28.2L335 227.6 282.2 126c-6.3-12.1-21.2-16.9-33.4-10.5-12.1 6.3-16.9 21.3-10.5 33.4l64.5 123.7 167.4 26.2z" fill="#0088ce"/></svg>