<svg width="50" height="50" xmlns="http://www.w3.org/2000/svg"><defs><path d="M20.914 26.294a1.834 1.834 0 00-2.563.393l-5.686 7.74V10.833a1.834 1.834 0 10-3.667 0v23.592l-5.686-7.74a1.834 1.834 0 00-2.956 2.172l8.997 12.247c.015.02.035.034.05.053.056.07.119.136.186.199.037.034.073.07.111.1.017.013.029.028.046.04.085.063.173.116.265.161.01.006.021.009.032.014.106.05.216.089.328.118l.087.02c.123.025.247.043.372.043h.003c.124 0 .249-.018.372-.043l.087-.02c.112-.03.221-.067.328-.118.01-.005.022-.008.032-.014.091-.045.18-.098.265-.16.017-.013.029-.028.045-.04.039-.032.074-.067.111-.101.068-.063.13-.129.187-.199.015-.02.035-.033.05-.053l8.996-12.247c.6-.816.425-1.964-.392-2.564zm27.005 8.34H25.191a2.081 2.081 0 000 4.162H47.92a2.08 2.08 0 100-4.162zm0-10.973H30.008a2.08 2.08 0 100 4.162h17.911a2.081 2.081 0 000-4.162zm-24.685-6.813a2.081 2.081 0 010-4.162h24.685a2.08 2.08 0 110 4.162H23.234z" id="path-1"/></defs></svg>