<svg width="50" height="50" xmlns="http://www.w3.org/2000/svg"><defs><path d="M33.549 21.145H15.872a2.302 2.302 0 01-2.29-2.31c0-1.277 1.026-2.313 2.29-2.313h17.677a2.305 2.305 0 012.292 2.313 2.305 2.305 0 01-2.292 2.31m-5.019 9.282H15.872a2.3 2.3 0 01-2.29-2.31 2.3 2.3 0 012.29-2.311H28.53a2.301 2.301 0 012.293 2.31 2.3 2.3 0 01-2.293 2.31M24.84.002C12.67 0 2.77 9.948 2.77 22.174c0 5.416 1.95 10.537 5.478 14.58-1.102 1.58-5.977 8.589-5.977 8.589a1.53 1.53 0 00.042 1.797 1.51 1.51 0 001.718.5s12.006-4.416 12.951-4.76a21.939 21.939 0 007.86 1.468c12.17 0 22.069-9.95 22.069-22.174C46.91 9.948 37.01.001 24.84.001" id="path-1"/></defs></svg>