<svg xmlns="http://www.w3.org/2000/svg" viewBox="0 0 500 500"><path d="M358.6 381.8c0 26.2 21.2 47.3 47.3 47.3 26.2 0 47.3-21.2 47.3-47.3 0-26.2-21.2-47.3-47.3-47.3-26.1 0-47.3 21.2-47.3 47.3zm22.3-175.6l-49.7 86.7 130.3-27.7-80.6-59zm77.8-98.4L361.3 92l-15.9 97.4 97.4 15.9 15.9-97.5zm34.8 192.6l-4.9-22.9-178 38.2 4.9 22.9 178-38.2zM23.9 273.9a13.6 13.6 0 0011.2-13.4c0-.8-.1-1.6-.2-2.5-.7-4-1.1-8-1.1-12.1 0-2.7.2-5.4.5-8.1 2.1-18 11.2-34.2 25.5-45.4.8-.6 1.5-1.1 2.3-1.7l.1 220.7c0 9.8 7.9 17.8 17.8 17.8 9.8 0 17.8-8 17.8-17.8 0 0 .1-63.5.1-108.7 7.9 10.2 15.8 22 21.6 34.6 9.4 20.5 11.5 39.5 11.5 52.5 0 10.7-1.4 17.4-1.5 17.5-.3 1.3-.4 2.6-.4 3.9 0 8.1 5.6 15.5 13.8 17.3 9.5 2.2 19-3.7 21.3-13.2.4-1.7 10-43.9-12.3-92.8-9.1-20-22.3-38-34-51.8V222c14.5 19 35.9 32.5 60.9 36.4 2.3 11.7 8.4 22.3 18 29.7 5.4 4.2 11.5 7.1 17.9 8.8v20.9l-.1-.1-.1 100.2c0 6.2 5 11.3 11.2 11.3 6.2 0 11.3-5 11.3-11.3l.1-58.4c6.2 5.4 12.1 11.9 15.1 18.3 8 17.6 4.8 37.4 4.8 37.5-1.4 6 2.3 12.1 8.3 13.6.9.2 1.8.3 2.6.3 5.1 0 9.7-3.5 10.9-8.6.2-.9 5.1-27.1-6.2-52-3.8-8.4-10.1-16-16.6-22.3V296c5.2-1.8 10.2-4.4 14.6-7.9 10.5-8.2 17.1-20 18.7-33.2.6-5 .5-10-.4-14.8-.9-5.2-5.9-8.7-11-7.7-5.2.9-8.6 5.9-7.7 11 .5 3 .6 6.1.2 9.2-1 8.2-5.4 15.1-11.6 20.5-12.4 10.7-35.9 12.4-50.5 0-6.3-5.3-10.6-12.3-11.6-20.5-.4-3-.3-6.1.3-9.2.9-5.2-2.5-10.1-7.7-11-.9-.2-1.8-.1-2.7 0-.7-.2-1.4-.6-2.2-.7-33.6-4.3-59-33.1-59.2-67 0-6.9-5.2-12.7-12.1-13.5-25.3-3-50.2 4-70.3 19.8-20 15.8-32.7 38.3-35.7 63.6-1.1 9.5-.8 19.1.9 28.4 1.3 7.4 8.5 12.3 15.9 10.9zm215.1-3.7c11.5-3.4 18-15.5 14.6-27s-15.5-18-27-14.6-18 15.5-14.6 27c3.5 11.4 15.5 18 27 14.6zM91.7 139.6c16.4 0 29.6-13.3 29.6-29.6 0-16.4-13.2-29.6-29.6-29.6-16.3 0-29.6 13.2-29.6 29.6s13.2 29.6 29.6 29.6zM500 485c0 8.3-5.9 15-13.1 15H13.1C5.9 500 0 493.3 0 485c0-8.2 5.9-15 13.1-15h473.8c7.2.1 13.1 6.8 13.1 15z" fill="#0f87c9"/></svg>