<svg width="50" height="50" xmlns="http://www.w3.org/2000/svg"><defs><path d="M46.5 47h-42a1.5 1.5 0 100 3h42a1.5 1.5 0 100-3M9.923 33.263c-.439-2.042-.658-3.971-.658-5.786V0h4.514v26.98c0 2.105.209 3.911.628 5.416.418 1.506.969 2.775 1.657 3.805.695 1.033 1.465 1.849 2.322 2.445.857.6 1.715 1.063 2.571 1.393.857.33 1.684.546 2.475.649.796.104 1.484.154 2.071.154.54 0 1.219-.05 2.035-.154a10.725 10.725 0 002.51-.649c.851-.33 1.709-.793 2.566-1.393.857-.596 1.632-1.412 2.322-2.445.688-1.03 1.244-2.299 1.662-3.805.419-1.505.628-3.311.628-5.416V0h4.509v27.477c0 1.815-.219 3.744-.658 5.786a15.466 15.466 0 01-2.473 5.66c-1.215 1.735-2.874 3.168-4.985 4.304-2.112 1.133-4.816 1.699-8.116 1.699-3.347 0-6.061-.566-8.152-1.699-2.087-1.136-3.74-2.569-4.949-4.304a15.379 15.379 0 01-2.479-5.66" id="path-1"/></defs></svg>