<svg width="50" height="50" xmlns="http://www.w3.org/2000/svg"><defs><path d="M38.068 17C39.135 17 40 16.104 40 15s-.865-2-1.932-2H1.932C.865 13 0 13.896 0 15s.865 2 1.932 2h36.136zm9.845 3H2.087C.935 20 0 20.896 0 22s.935 2 2.087 2h45.826C49.066 24 50 23.104 50 22s-.934-2-2.087-2zm0 14H2.087C.935 34 0 34.896 0 36s.935 2 2.087 2h45.826C49.066 38 50 37.104 50 36s-.934-2-2.087-2zM2.172 10h45.656C49.027 10 50 9.104 50 8s-.973-2-2.172-2H2.172C.973 6 0 6.896 0 8s.973 2 2.172 2zm-.24 35h36.136C39.135 45 40 44.104 40 43s-.865-2-1.932-2H1.932C.865 41 0 41.896 0 43s.865 2 1.932 2zM40 29c0 1.104-.865 2-1.932 2H1.932C.865 31 0 30.104 0 29s.865-2 1.932-2h36.136c1.067 0 1.932.896 1.932 2z" id="path-1"/></defs></svg>