<svg width="50" height="50" xmlns="http://www.w3.org/2000/svg"><defs><path d="M5.5 34a5.5 5.5 0 10.001 11.001A5.5 5.5 0 005.5 34zm0-14a5.5 5.5 0 10.001 11.001A5.5 5.5 0 005.5 20zm0-14a5.5 5.5 0 10.001 11.001A5.5 5.5 0 005.5 6zm42.085 11C48.919 17 50 16.104 50 15s-1.081-2-2.415-2h-31.17C15.081 13 14 13.896 14 15s1.081 2 2.415 2h31.17zm.328 3H16.087C14.935 20 14 20.896 14 22s.935 2 2.087 2h31.826C49.065 24 50 23.104 50 22s-.935-2-2.087-2zm0 14H16.087C14.935 34 14 34.896 14 36s.935 2 2.087 2h31.826C49.065 38 50 37.104 50 36s-.935-2-2.087-2zm-31.74-24h31.654C49.027 10 50 9.104 50 8s-.973-2-2.173-2H16.173C14.973 6 14 6.896 14 8s.973 2 2.173 2zm.242 35h31.17C48.919 45 50 44.104 50 43s-1.081-2-2.415-2h-31.17C15.081 41 14 41.896 14 43s1.081 2 2.415 2zM50 29c0 1.104-1.081 2-2.415 2h-31.17C15.081 31 14 30.104 14 29s1.081-2 2.415-2h31.17c1.334 0 2.415.896 2.415 2z" id="path-1"/></defs></svg>