<svg width="50" height="50" xmlns="http://www.w3.org/2000/svg"><defs><path d="M15.896 42.362h8.189a33.7 33.7 0 003.637-.212c1.294-.142 2.482-.471 3.566-.989a7.027 7.027 0 002.682-2.224c.706-.964 1.059-2.27 1.059-3.919 0-2.635-.859-4.47-2.577-5.506-1.719-1.035-4.389-1.553-8.013-1.553h-8.543v14.403zm0-22.029h8.119c2.965 0 5.19-.575 6.673-1.729 1.482-1.153 2.223-2.671 2.223-4.554 0-2.164-.765-3.777-2.295-4.836-1.529-1.059-3.989-1.588-7.378-1.588h-7.342v12.707zM7 0h19.486c1.883 0 3.743.224 5.577.671 1.836.448 3.471 1.177 4.908 2.189 1.435 1.013 2.6 2.319 3.495 3.919.893 1.6 1.341 3.529 1.341 5.788 0 2.825-.801 5.154-2.401 6.99-1.6 1.835-3.695 3.154-6.283 3.954v.141c1.553.189 3.001.625 4.342 1.306 1.342.683 2.482 1.553 3.425 2.612a12.116 12.116 0 012.223 3.671c.541 1.39.812 2.884.812 4.484 0 2.73-.542 5.002-1.624 6.813a12.88 12.88 0 01-4.271 4.377c-1.766 1.107-3.79 1.895-6.072 2.366-2.284.47-4.602.706-6.954.706H7V0z" id="path-1"/></defs></svg>