<svg width="50" height="50" xmlns="http://www.w3.org/2000/svg"><defs><path d="M38.551 17c.801 0 1.449-.896 1.449-2s-.648-2-1.449-2H11.449c-.8 0-1.449.896-1.449 2s.649 2 1.449 2h27.102zm9.362 3H2.087C.935 20 0 20.896 0 22s.935 2 2.087 2h45.826C49.066 24 50 23.104 50 22s-.934-2-2.087-2zm0 14H2.087C.935 34 0 34.896 0 36s.935 2 2.087 2h45.826C49.066 38 50 37.104 50 36s-.934-2-2.087-2zM2.173 10h45.654C49.028 10 50 9.104 50 8s-.972-2-2.173-2H2.173C.973 6 0 6.896 0 8s.973 2 2.173 2zm9.276 35h27.102c.801 0 1.449-.896 1.449-2s-.648-2-1.449-2H11.449c-.8 0-1.449.896-1.449 2s.649 2 1.449 2zM40 29c0 1.104-.648 2-1.449 2H11.449c-.8 0-1.449-.896-1.449-2s.649-2 1.449-2h27.102c.801 0 1.449.896 1.449 2z" id="path-1"/></defs></svg>