<svg xmlns="http://www.w3.org/2000/svg" viewBox="0 0 616.1 500"><path d="M553 125.5v16.2c-.8 198.6-162.4 359-361 358.3-68-.3-134.6-19.8-191.9-56.4 10 .6 20 .6 30 0 56.9.2 112.3-18.8 157.1-53.9-54.1-1-101.6-36.3-118.2-87.8 7.9 1.5 15.9 2.3 23.9 2.3 11.2-.1 22.3-1.6 33.1-4.6-59-12.1-101.3-63.9-101.4-124 17.6 9.8 37.3 15.2 57.4 15.8C26.8 154 10 80.3 43.5 22.7c64.2 79 159 127 260.7 132.1-15.5-68.2 27.2-136.1 95.4-151.7 43.5-9.9 89.1 3.8 119.9 36.1 28.3-5.6 55.4-16 80.1-30.8-9.4 29.3-29.1 54.2-55.5 70.1 24.9-3.1 49.1-9.8 72-20-16.8 26-38.2 48.7-63.1 67z" fill="#0088ce"/></svg>