<svg width="50" height="50" xmlns="http://www.w3.org/2000/svg"><defs><path d="M37.292 32.65a1.691 1.691 0 01-.757.154 1.94 1.94 0 01-1.946-1.949c0-2.312 3.524-1.676 3.524-5.355 0-3.684-3.524-3.043-3.524-5.355a1.94 1.94 0 011.946-1.949c.24 0 .512.032.757.155C40.145 19.477 42 22.457 42 25.5s-1.855 5.996-4.708 7.15zm-6.957 9.401A1.964 1.964 0 0128.389 44a1.915 1.915 0 01-1.365-.581l-10.119-10.13h-7.96A1.964 1.964 0 017 31.342V19.66c0-1.068.884-1.949 1.946-1.949h7.96L27.023 7.577A1.929 1.929 0 0128.389 7c1.061 0 1.946.881 1.946 1.949V42.05z" id="path-1"/></defs></svg>