<svg width="50" height="50" xmlns="http://www.w3.org/2000/svg"><defs><path d="M36.028 46.847a2.166 2.166 0 01-.78.153c-1.055 0-1.925-.88-1.925-1.936 0-.876.453-1.36 1.17-1.784.422-.243.902-.392 1.35-.636a20.652 20.652 0 002.468-1.54A19.428 19.428 0 0046.15 25.5c0-6.17-2.915-11.944-7.84-15.605a20.652 20.652 0 00-2.467-1.539c-.449-.244-.929-.393-1.35-.636-.718-.425-1.171-.908-1.171-1.784 0-1.056.87-1.936 1.924-1.936.27 0 .538.059.78.153C44.498 7.814 50 16.215 50 25.5c0 9.285-5.504 17.686-13.972 21.347zm-3.037-7.105c-.238.09-.511.149-.75.149a1.946 1.946 0 01-1.95-1.932c0-.85.48-1.422 1.17-1.783.812-.425 1.561-.79 2.284-1.332a11.576 11.576 0 004.714-9.344c0-3.688-1.74-7.164-4.714-9.344-.723-.542-1.472-.907-2.284-1.332-.69-.36-1.17-.934-1.17-1.783 0-1.056.87-1.932 1.92-1.932.269 0 .542.06.78.15 5.652 2.387 9.316 8.102 9.316 14.241 0 6.139-3.664 11.854-9.316 14.242zm-3.032-7.137a1.672 1.672 0 01-.754.153c-1.05 0-1.92-.848-1.92-1.936 0-2.298 3.486-1.661 3.486-5.322 0-3.66-3.486-3.024-3.486-5.322 0-1.088.87-1.936 1.92-1.936.242 0 .512.031.754.153 2.821 1.12 4.656 4.08 4.656 7.105 0 3.024-1.835 5.958-4.656 7.105zm-6.881 9.344c0 1.056-.875 1.936-1.924 1.936-.512 0-.992-.212-1.35-.577L9.796 33.24H1.924C.874 33.241 0 32.366 0 31.305v-11.61c0-1.06.875-1.936 1.924-1.936h7.872L19.804 7.692a1.889 1.889 0 011.35-.577c1.05 0 1.924.88 1.924 1.936V41.95z" id="path-1"/></defs></svg>