<svg xmlns="http://www.w3.org/2000/svg" width="522.1" height="500"><path d="M514.9 433.1l-217.3-407C288.6 9.4 275.4 0 261.1 0c-14.2 0-27.6 9.5-36.3 26.1L7.3 433.1c-8.8 16.3-9.7 33.2-2.2 46.4C12.5 492.5 27 500 45 500h432.1c18 0 32.6-7.5 39.9-20.6 7.5-13.1 6.7-30-2.1-46.3zm-253.8 9.4c-15.2 0-27.5-12.9-27.5-28.8s12.2-28.6 27.5-28.6c15.2 0 27.6 12.8 27.6 28.6-.1 15.8-12.4 28.8-27.6 28.8zm21.8-102.2c-.4 11.6-10.8 21.3-21.8 21.3-11.1 0-21.4-9.6-21.8-21.3l-11.7-182.6c-.4-11.7 8.4-21.2 19.6-21.2H275c11.3 0 20 9.5 19.7 21.2l-11.8 182.6z" fill="#0088ce"/></svg>